<svg width="52px" height="50" viewBox="0 0 47 50" fill="none" xmlns="http://www.w3.org/2000/svg">
                    <path d="M41.13 38.41c4.954.438 6.797 4.86 5.435 7.992-.977 2.246-3.027 3.59-5.7 3.59-9.992.008-19.99.005-29.982.005-1.55 0-3.1.007-4.65 0-3.366-.02-5.943-2.199-6.21-5.25-.275-3.135 1.916-5.73 5.283-6.258.157-.026.313-.045.573-.086 0-2.966-.004-5.921 0-8.876.003-1.88-.1-3.77.06-5.64.329-3.808 2.073-6.935 5.1-9.358.313-.25.626-.502.935-.76.027-.023.02-.075.05-.21-1.42-1.12-2.863-2.284-4.336-3.411-1.37-1.049-2.1-2.36-1.71-4.071.412-1.809 1.69-2.749 3.504-3.067.962-.169 1.916-.378 2.878-.554 1.351-.248 2.695-.341 3.699-1.573.427-.524 1.45-.783 2.21-.802C21.735 0 25.209-.06 28.667.108c1.015.048 2 .868 2.984 1.363.443.22.829.621 1.29.734 1.5.367 3.031.614 4.54.95 1.522.342 2.522 1.282 2.908 2.768.385 1.48.007 2.805-1.176 3.805-1.481 1.25-3.027 2.427-4.645 3.711.275.229.496.431.736.603 3.787 2.76 5.78 6.438 5.818 11.077.038 4.397.007 8.797.007 13.291Zm-17.75 7.744c5.832 0 11.665.008 17.497-.007 1.294-.004 2.123-.715 2.199-1.79.076-1.071-.71-1.899-1.943-2.045-2.622-.31-3.916-1.715-3.92-4.295-.008-4.322.027-8.643-.011-12.965-.05-5.407-4.29-9.568-9.784-9.635-2.488-.03-4.977-.015-7.466-.004-5.95.022-10.142 4.145-10.16 9.999-.012 4.201.003 8.403-.005 12.605-.004 2.576-1.301 3.988-3.92 4.299-1.206.142-1.947.876-1.947 1.921 0 1.09.825 1.85 2.077 1.914.324.015.653.003.977.003 5.474.004 10.94.004 16.406 0Zm-4.958-42.23c.45 1.348.862 2.632 1.313 3.902.439 1.236.58 2.94 1.477 3.554.912.625 2.591.172 3.935.19.122 0 .267.038.363-.01.229-.117.56-.233.63-.424.832-2.37 1.626-4.756 2.458-7.212H18.422ZM16.632 12c.095-.097.19-.194.29-.292-.669-1.94-1.337-3.876-2.008-5.83l-5.15 1.04c2.535 1.738 4.459 3.742 6.867 5.082ZM32.04 5.976c-.672 1.985-1.31 3.857-1.943 5.73.069.044.134.093.202.138 2.039-1.599 4.073-3.198 6.31-4.958-1.653-.33-3.023-.603-4.57-.91Z" fill="url(#valuation_svg__a)"></path>
                    <path d="M26.064 42h-4.096c.47-1.656-.433-2.483-1.76-3.305-1.5-.928-2.123-2.501-2.204-4.3h3.874c.082.188.18.44.296.676.483.957 1.285 1.386 2.348 1.096.993-.27 1.538-.987 1.437-1.994-.105-1.052-.795-1.63-1.885-1.761-.533-.064-1.082-.087-1.596-.226-2.383-.642-3.87-2.163-4.35-4.484-.471-2.291.374-4.188 2.25-5.634 1.523-1.171 1.543-1.149 1.683-3.068h3.956c-.486 1.634.452 2.445 1.772 3.26 1.5.928 2.13 2.55 2.134 4.308h-3.805c-.1-.23-.206-.519-.358-.785-.502-.887-1.289-1.266-2.293-.992-.939.256-1.476.92-1.445 1.874.031 1.01.639 1.634 1.647 1.845.604.127 1.25.1 1.842.259 2.442.65 3.933 2.227 4.377 4.6.42 2.242-.339 4.248-2.306 5.469-1.292.81-1.904 1.618-1.518 3.162Z" fill="url(#valuation_svg__b)"></path>
                    <defs>
                      <linearGradient id="valuation_svg__a" x1="23.5" y1="0" x2="23.5" y2="50" gradientUnits="userSpaceOnUse">
                        <stop stop-color="#20CF97"></stop>
                        <stop offset="1" stop-color="#08A0C8"></stop>
                      </linearGradient>
                      <linearGradient id="valuation_svg__b" x1="24" y1="19" x2="24" y2="42" gradientUnits="userSpaceOnUse">
                        <stop stop-color="#20CF97"></stop>
                        <stop offset="1" stop-color="#08A0C8"></stop>
                      </linearGradient>
                    </defs>
                  </svg>