<svg width="52px" height="48" viewBox="0 0 48 48" fill="none" xmlns="http://www.w3.org/2000/svg">
                    <path d="M41.719 48c-.388-.272-.857-.476-1.147-.829-.584-.711-.448-1.693.249-2.42.561-.586 1.139-1.157 1.787-1.813h-.591c-9.748 0-19.496.004-29.245-.002-2.922-.002-5.165-1.256-6.691-3.752-.622-1.017-.93-2.142-1.004-3.328-.016-.28-.014-.563-.014-.843V5.365c-.135.105-.23.166-.308.244-.469.46-.93.924-1.402 1.383C2.15 8.165.64 7.828.058 6.259.048 6.232.02 6.21 0 6.187v-.75c.328-.46.616-.96.995-1.375.597-.654 1.28-1.23 1.881-1.88C3.893 1.082 5.031.215 6.563 0H7.5c1.54.212 2.672 1.096 3.697 2.19.736.788 1.54 1.51 2.294 2.28.533.545.714 1.206.464 1.94-.23.675-.718 1.092-1.411 1.235-.702.147-1.292-.107-1.782-.605-.61-.622-1.209-1.255-1.813-1.883l-.111.067c-.009.115-.025.23-.025.346 0 9.887-.003 19.775.001 29.663.001 2.344 1.604 3.95 3.944 3.952 9.872.005 19.745.002 29.617.002h.4c-.112-.14-.174-.235-.253-.314-.553-.55-1.12-1.09-1.664-1.649-.816-.835-.85-1.958-.098-2.721.754-.766 1.888-.76 2.721.048 1.077 1.043 2.135 2.106 3.197 3.165.773.768 1.112 1.746 1.322 2.784v.938c-.217 1.538-1.09 2.672-2.207 3.677-.682.615-1.29 1.313-1.975 1.927-.408.366-.897.642-1.35.958h-.75Z" fill="url(#square-meter_svg__a)"></path>
                    <path d="M48 30.375c-.056.127-.111.254-.168.38-.349.77-1.176 1.228-1.984 1.1a1.889 1.889 0 0 1-1.583-1.677c-.02-.201-.014-.406-.014-.608V6.006c0-1.555-.702-2.256-2.256-2.256-7.854 0-15.709.003-23.563-.008-.38-.001-.792-.048-1.136-.197-.706-.306-1.07-.904-1.066-1.674.004-.767.378-1.335 1.067-1.683.137-.07.282-.126.422-.188h25.313c.072.027.141.067.215.078C44.8.325 46.02 1.103 46.95 2.36c.577.779.849 1.679 1.05 2.608v25.406Z" fill="url(#square-meter_svg__b)"></path>
                    <path d="M12.562 24.41c0-1.86-.002-3.719 0-5.578.003-1.803 1.407-2.63 2.992-1.776.112.06.296.053.426.012 1.688-.548 3.266-.335 4.719.684.24.168.391.138.615-.013 1.73-1.165 3.56-1.326 5.397-.34 1.817.977 2.712 2.575 2.723 4.64.014 2.717.008 5.436 0 8.154-.002.903-.515 1.613-1.302 1.858-.79.247-1.686-.02-2.092-.732a2.745 2.745 0 0 1-.337-1.28c-.03-2.672-.008-5.344-.018-8.014-.004-1.103-.994-1.804-1.946-1.387-.61.268-.866.77-.865 1.426.004 2.624.003 5.249 0 7.873 0 .233.005.473-.04.7a1.866 1.866 0 0 1-1.97 1.51 1.851 1.851 0 0 1-1.727-1.783c-.03-.827-.011-1.656-.011-2.484-.001-1.953.005-3.905-.003-5.858-.004-.842-.547-1.446-1.309-1.49-.87-.052-1.497.58-1.499 1.534-.005 2.64 0 5.28-.004 7.92 0 .217.002.44-.04.652a1.867 1.867 0 0 1-1.973 1.508 1.847 1.847 0 0 1-1.726-1.832c-.024-1.703-.009-3.406-.01-5.108v-.796Z" fill="url(#square-meter_svg__c)"></path>
                    <path d="M38.017 19.084c.414.042.747.04 1.06.114a1.84 1.84 0 0 1 1.415 1.944c-.072.905-.779 1.686-1.694 1.709-1.778.044-3.56.038-5.338.002-.783-.016-1.36-.463-1.638-1.199-.31-.822-.03-1.512.561-2.126 1.039-1.078 2.08-2.157 3.076-3.274.41-.462.73-1.011 1.044-1.547.087-.15.086-.45-.01-.582-.104-.14-.393-.255-.556-.211-.186.05-.37.26-.469.446-.096.183-.063.428-.124.636-.26.893-1.131 1.438-2.065 1.309-.863-.12-1.548-.885-1.586-1.77-.109-2.508 2.269-4.694 4.759-4.376 2.29.291 3.822 1.922 3.935 4.216.04.82-.24 1.574-.651 2.264-.366.615-.796 1.191-1.206 1.78-.148.213-.317.413-.513.665Z" fill="url(#square-meter_svg__d)"></path>
                    <defs>
                      <linearGradient id="square-meter_svg__a" x1="24" y1="0" x2="24" y2="48" gradientUnits="userSpaceOnUse">
                        <stop stop-color="#20CF97"></stop>
                        <stop offset="1" stop-color="#08A0C8"></stop>
                      </linearGradient>
                      <linearGradient id="square-meter_svg__b" x1="32.115" y1="0" x2="32.115" y2="31.876" gradientUnits="userSpaceOnUse">
                        <stop stop-color="#20CF97"></stop>
                        <stop offset="1" stop-color="#08A0C8"></stop>
                      </linearGradient>
                      <linearGradient id="square-meter_svg__c" x1="21" y1="16.718" x2="21" y2="32.152" gradientUnits="userSpaceOnUse">
                        <stop stop-color="#20CF97"></stop>
                        <stop offset="1" stop-color="#08A0C8"></stop>
                      </linearGradient>
                      <linearGradient id="square-meter_svg__d" x1="36.093" y1="10.128" x2="36.093" y2="22.882" gradientUnits="userSpaceOnUse">
                        <stop stop-color="#20CF97"></stop>
                        <stop offset="1" stop-color="#08A0C8"></stop>
                      </linearGradient>
                    </defs>
                  </svg>