<svg width="186" height="28" viewBox="0 0 186 28" fill="none" xmlns="http://www.w3.org/2000/svg">
<path d="M171.4 23.4952C171.4 23.5984 171.485 23.6787 171.585 23.6787H176.125C176.228 23.6787 176.309 23.5946 176.309 23.4952V16.5774H171.4V23.4952Z" fill="#00EBFF"/>
<path d="M176.497 7.82016H183.325C183.429 7.82016 183.509 7.73603 183.509 7.63661V4.46261C183.509 4.35936 183.425 4.27905 183.325 4.27905H164.358C164.254 4.27905 164.174 4.36318 164.174 4.46261V7.63661C164.174 7.73986 164.258 7.82016 164.358 7.82016H171.213C171.316 7.82016 171.397 7.90429 171.397 8.00372V12.8527H176.305V8.00372C176.305 7.90047 176.39 7.82016 176.49 7.82016H176.497Z" fill="#00EBFF"/>
<path d="M25.6065 17.086L20.8321 17.1357C20.763 17.1357 20.7016 17.1778 20.6709 17.2351C20.2641 17.9885 20.0492 18.3326 19.7306 18.6768C18.9592 19.5831 17.4394 20.7648 14.5994 20.7648C12.2007 20.7648 10.7116 19.8049 9.96702 19.1969C9.33377 18.7036 8.91927 18.2064 8.75424 17.9579C7.95596 16.8298 7.54147 15.346 7.54147 13.9999C7.54147 11.2772 8.89241 8.86035 11.4293 7.81638C12.7265 7.26571 13.9661 7.23894 14.465 7.23894C16.3955 7.23894 17.7196 7.90051 18.3528 8.30968C19.3852 9.00567 19.934 9.79343 20.2488 10.2753C20.2871 10.3365 20.3562 10.3632 20.4253 10.3556L25.3877 9.73989C25.5105 9.7246 25.5873 9.59458 25.5374 9.48368C25.4491 9.28483 25.3493 9.08597 25.2495 8.88712C24.8926 8.25615 23.9792 6.87947 22.3251 5.78196C19.2893 3.74754 15.5397 3.66724 14.465 3.66724C10.5772 3.66724 7.95596 4.84888 6.68562 5.70165C6.29799 5.95022 5.96793 6.16819 5.30781 6.80299C4.81272 7.26953 4.45196 7.68253 4.06817 8.25997C2.96285 9.90815 2.49463 11.9693 2.49463 13.9502C2.49463 15.3804 2.65966 19.4493 6.19053 22.0573C9.22631 24.3097 13.0872 24.3365 14.1887 24.3365C18.9899 24.3365 21.5536 22.8527 23.154 21.4493C24.34 20.4053 24.8657 19.5257 25.1689 18.9215C25.3954 18.4703 25.5527 18.13 25.7907 17.3192C25.8252 17.2007 25.737 17.0783 25.6103 17.0821L25.6065 17.086Z" fill="#00EBFF"/>
<path d="M47.2331 5.98088C46.5423 5.48758 45.9935 5.21224 45.6865 5.0478C43.5065 3.97706 40.5821 3.59083 38.1565 3.67496C35.5352 3.78585 32.6952 4.4436 30.5728 6.06501C29.1374 7.16253 26.9575 9.49905 26.9575 13.9809C26.9575 16.9484 28.0321 18.9828 28.6961 19.9159C30.1046 21.9771 33.1634 24.3136 38.9586 24.3136C42.8196 24.3136 45.3027 23.2122 46.6536 22.3327C49.605 20.3556 50.3764 17.5488 50.6259 16.26C50.8484 15.1893 50.8485 14.1721 50.8485 13.7859C50.8485 10.543 49.6088 8.39771 48.7798 7.43786C48.3385 6.88719 47.7858 6.39388 47.237 5.98088H47.2331ZM41.7142 20.3556C40.5015 20.7954 39.3424 20.8222 38.9011 20.8222C36.5024 20.8222 35.0133 19.9962 34.238 19.3384C33.7429 18.9254 33.3822 18.4054 33.244 18.2371C32.8026 17.6329 32.6376 17.2773 32.4994 16.9178C32.0044 15.7629 31.9737 14.501 31.9737 14.1147C31.9737 12.8222 32.25 9.38815 35.8614 7.7935C37.0742 7.2696 38.2333 7.1893 38.6746 7.16253C40.6895 7.10899 42.785 7.7935 44.136 9.27725C45.7632 11.0631 45.8745 13.1816 45.8745 14.0038C45.8745 15.2122 45.5445 18.979 41.7104 20.3518L41.7142 20.3556Z" fill="#00EBFF"/>
<path d="M79.8974 4.27531H73.2271C73.1542 4.27531 73.0851 4.3212 73.0544 4.39003L67.286 18.107C67.2208 18.26 67.0059 18.26 66.9445 18.107L61.1224 4.38621C61.0917 4.31737 61.0264 4.27148 60.9497 4.27148H54.195C54.0913 4.27148 54.0107 4.35561 54.0107 4.45504V23.4875C54.0107 23.5908 54.0952 23.6711 54.195 23.6711H58.455C58.5587 23.6711 58.6431 23.587 58.6392 23.4837L58.5356 9.67875C58.5356 9.47607 58.812 9.41871 58.8926 9.60609L64.7991 23.5602C64.8298 23.629 64.895 23.6749 64.9718 23.6749H69.1666C69.2434 23.6749 69.3086 23.629 69.3393 23.5602L75.1883 9.61756C75.265 9.43018 75.5452 9.48755 75.5452 9.69022L75.4416 23.4875C75.4416 23.5908 75.526 23.6749 75.6258 23.6749H79.8859C79.9895 23.6749 80.0701 23.5908 80.0701 23.4914V4.45886C80.0701 4.35561 79.9857 4.27531 79.8859 4.27531H79.8974Z" fill="#00EBFF"/>
<path d="M104.94 4.27539H100.457C100.353 4.27539 100.273 4.35952 100.273 4.45895V16.3939C100.273 17.327 100.161 17.6597 99.9427 18.0995C99.7508 18.4551 99.3095 19.1435 98.3999 19.6368C97.049 20.4054 95.1185 20.4054 94.7577 20.4054C94.3164 20.4054 92.0827 20.4589 90.536 19.3614C89.212 18.4284 88.9932 17.1893 88.9932 15.7056V4.45895C88.9932 4.3557 88.9088 4.27539 88.809 4.27539H84.3263C84.2227 4.27539 84.1421 4.35952 84.1421 4.45895V15.5412C84.1421 17.6559 84.2802 18.5393 84.6947 19.4991C85.3856 21.0937 87.0397 23.1014 90.9275 23.9503C92.6085 24.306 94.1014 24.3366 94.7347 24.3366C97.4097 24.3366 100.887 23.7056 102.982 21.8356C103.589 21.2849 103.976 20.7075 104.141 20.4628C105.109 18.8949 105.135 17.3844 105.135 15.5718V4.45895C105.135 4.3557 105.051 4.27539 104.951 4.27539H104.94Z" fill="#00EBFF"/>
<path d="M130.481 4.27539H126.217C126.113 4.27539 126.033 4.35952 126.033 4.45895V17.3347C126.033 17.5067 125.822 17.5832 125.707 17.457L114.143 4.3404C114.109 4.30216 114.059 4.27921 114.005 4.27921H109.392C109.288 4.27921 109.208 4.36334 109.208 4.46277V23.4953C109.208 23.5985 109.292 23.6788 109.392 23.6788H113.656C113.759 23.6788 113.84 23.5947 113.84 23.4953V10.566C113.84 10.3939 114.051 10.3175 114.166 10.4436L125.814 23.6176C125.849 23.6559 125.899 23.6788 125.952 23.6788H130.481C130.585 23.6788 130.665 23.5947 130.665 23.4953V4.45895C130.665 4.3557 130.581 4.27539 130.481 4.27539Z" fill="#00EBFF"/>
<path d="M155.75 4.27539H150.292C150.231 4.27539 150.177 4.30598 150.143 4.35187L144.585 12.1683C144.512 12.2716 144.355 12.2716 144.282 12.1683L138.752 4.35187C138.717 4.30216 138.66 4.27539 138.598 4.27539H133.083C132.93 4.27539 132.841 4.4513 132.937 4.57367L141.941 16.348C141.964 16.3786 141.979 16.4207 141.979 16.4589V23.4953C141.979 23.5985 142.064 23.6788 142.164 23.6788H146.646C146.75 23.6788 146.831 23.5947 146.831 23.4953V16.4589C146.831 16.4169 146.842 16.3786 146.869 16.348L155.9 4.57367C155.992 4.4513 155.907 4.27539 155.754 4.27539H155.75Z" fill="#00EBFF"/>
<path d="M161.848 12.8528H157.972C157.688 12.8528 157.458 13.0822 157.458 13.3652V16.065C157.458 16.348 157.688 16.5774 157.972 16.5774H161.848C162.132 16.5774 162.362 16.348 162.362 16.065V13.3652C162.362 13.0822 162.132 12.8528 161.848 12.8528Z" fill="#00EBFF"/>
</svg>
